<?xml version="1.0" encoding="UTF-8" standalone="no"?>
<svg
   xmlns:dc="http://purl.org/dc/elements/1.1/"
   xmlns:cc="http://creativecommons.org/ns#"
   xmlns:rdf="http://www.w3.org/1999/02/22-rdf-syntax-ns#"
   xmlns:svg="http://www.w3.org/2000/svg"
   xmlns="http://www.w3.org/2000/svg"
   xmlns:xlink="http://www.w3.org/1999/xlink"
   xmlns:sodipodi="http://sodipodi.sourceforge.net/DTD/sodipodi-0.dtd"
   xmlns:inkscape="http://www.inkscape.org/namespaces/inkscape"
   class=""
   viewBox="0 0 260 23"
   fill="#000"
   version="1.1"
   id="svg4"
   sodipodi:docname="nytmag.svg"
   inkscape:version="0.92.4 5da689c313, 2019-01-14">
  <metadata
     id="metadata10">
    <rdf:RDF>
      <cc:Work
         rdf:about="">
        <dc:format>image/svg+xml</dc:format>
        <dc:type
           rdf:resource="http://purl.org/dc/dcmitype/StillImage" />
      </cc:Work>
    </rdf:RDF>
  </metadata>
  <defs
     id="defs8" />
  <sodipodi:namedview
     pagecolor="#ffffff"
     bordercolor="#666666"
     borderopacity="1"
     objecttolerance="10"
     gridtolerance="10"
     guidetolerance="10"
     inkscape:pageopacity="0"
     inkscape:pageshadow="2"
     inkscape:window-width="3840"
     inkscape:window-height="2037"
     id="namedview6"
     showgrid="false"
     inkscape:zoom="5.6568543"
     inkscape:cx="180.3576"
     inkscape:cy="-4.8783157"
     inkscape:window-x="0"
     inkscape:window-y="0"
     inkscape:window-maximized="1"
     inkscape:current-layer="svg4" />
  <image
     sodipodi:absref="/home/fred/Workspace/nytmag/Afrique.png"
     xlink:href="Afrique.png"
     width="67.239639"
     height="21.361328"
     preserveAspectRatio="none"
     style="image-rendering:optimizeSpeed"
     id="image993"
     x="114.92488"
     y="-30.249067" />
  <path
     d="M13 2.6C13 .7 11.1.1 9.6.2v.4c.9.1 1.6.3 1.6.8 0 .4-.2.8-1 .8-.7 0-2-.4-3-.7C6 1.1 4.7.7 3.8.7 2 .7.6 1.9.6 3.5c0 1.4.9 2 1.4 2.2l.2-.3c-.3-.2-.5-.4-.5-.9 0-.4.4-1 1.2-1 .5 0 .9.1 1.5.2s1.2.3 2 .5c1.2.4 2.3.7 3.3.8v2.6L8.4 8.7V9l1.3 1.1v3.7c-.7.4-1.4.5-2.2.5C6.2 14.2 4.9 14 4 13l3.7-1.8V5.1L3 7.1c.5-1 1.2-1.9 2.2-2.5L5 4.3c-2.6.7-5 3-5 6.1 0 3.6 3 6.2 6.6 6.2 3.9 0 6.2-2.8 6.2-5.9h-.4c-.6 1.1-1.3 2.2-2.3 2.7V9.9l1.4-1.1v-.1l-1.4-1.1V4.9c1.4.2 2.9-.6 2.9-2.3m-8.1 9.6l-1.2.6c-.7-.8-1-2-1-3.4 0-.6 0-1.2.2-1.6l2.1-1-.1 5.4zm18.4-4.8l-.8.6-2.4-2-2.6 1.9V.7h-.4l-3.4 2.4v.3c.5.2 1 .3 1 1.1V14l-1.4.9.3.4.8-.5 2.2 1.9 2.6-1.8-.3-.4-.6.5-.8-.8v-6l.9-.6L19.9 9v5c0 3.3-.9 4-2.3 4.5v.5c2.7.1 5-.9 5-5.2V8.3l.9-.7-.2-.2zm8.7 5.5l-2.3 1.8-2.5-1.7v-.9l4.5-2.8v-.1L29.6 6l-5 2.6v5.6l-1 .7.3.4 1-.7 3.1 2.3 4.3-3.5-.3-.5zm-4.8-1.3V7.7l.4-.1 1.8 2.6-2.2 1.4zm22.5-9.7c0-.3-.1-.7-.2-1h-.3c-.3.8-.6 1.1-1.3 1.1-.8 0-1.2-.5-1.6-.9h-.4l-2.6 3 .3.3.8-.9c.3.2.5.4.9.6.3.2.8.3 1.2.3v6.9l-5.2-8.7c-.4-.6-1-1.7-2.4-1.7-1.6 0-2.8 1.2-2.6 3.3l.4.1c.1-.6.4-1.1.9-1.1s.8.3 1 .7v2.8c-1.6 0-2.6.9-2.6 2.2 0 .7.4 1.8 1.5 2l.1-.3c-.2-.2-.3-.3-.3-.5 0-.4.5-.7 1-.7h.3v3.5c-1.8 0-3.2 1-3.2 2.8 0 1.8 1.5 2.7 3.1 2.6l.1-.4c-1-.1-1.4-.6-1.4-1.1 0-.7.5-1 1.1-1 .7 0 1.2.4 1.7.9l2.7-3-.3-.3-.7.8c-.8-.7-1.6-1.2-2.6-1.3V4.5l7.2 12.2h.8V4.4c1.3.1 2.6-.8 2.6-2.5m6.7 11l-2.3 1.8-2.5-1.7v-.9l4.5-2.8v-.1L54 6l-5 2.6v5.6l-1 .7.3.4 1-.7 3.1 2.3 4.3-3.5-.3-.5zm-4.8-1.3V7.7l.4-.1 1.8 2.6-2.2 1.4zm20.3-4.5l-.8.5L69.2 6l-2 1.8.9.8v6.2l-.4.2-1.9-1.1V8.5l.9-.6L64.5 6l-2.2 1.8.9.8v6.2l-.3.1-2-1.4V8.6c0-1.2-.6-1.6-1.3-2.1-.7-.4-.9-.8-.9-1.4 0-.7.7-.9.9-.9l-.1-.4c-1 0-2.7.9-2.7 2.5 0 .9.4 1.2.9 1.7.5.4.9.9.9 1.6v4.8l-1 .8.3.4.9-.6 2.6 2 2.3-1.5 2.5 1.5 4.8-3V8.3l1.2-.9-.3-.3zm16.9-4.6l-.8.6-2.2-1.9-2.9 2.4V1.4h-.5v14.2c-.3 0-.8-.2-1.4-.3V3.4c0-.9-.7-2.1-2.3-2.1-1.8 0-2.9 1.4-2.9 2.6h.5c.1-.6.5-1 .9-1 .6 0 .9.3.9 1.5v3.3c-1.5.1-2.6 1-2.6 2.3 0 .9.4 1.7 1.4 1.9l.1-.4c-.4-.2-.5-.4-.5-.6 0-.5.5-.7 1.1-.7h.4v5.4c-1.3.5-1.9 1.4-1.9 2.6 0 1.5 1.2 2.6 3 2.6 1.2 0 2.3-.2 3.4-.5.9-.2 2.3-.4 2.8-.4.7 0 1 .3 1 .8 0 .6-.3.8-.7.9l.1.4c1.5-.3 2.4-1.2 2.4-2.6s-1.3-2.1-2.8-2.1c-.8 0-2.5.2-3.6.5-1.2.3-2.5.4-2.8.4-.7 0-1.4-.4-1.4-1.2 0-.8.8-1.4 2.3-1.4.9 0 1.7.2 2.7.4 1 .2 1.9.5 2.9.5 1.3 0 2.6-.5 2.6-2.4V3.6l.9-.8-.1-.3zm-3.7 5c-.3.3-.6.5-1.1.5-.6 0-.9-.2-1.1-.5V4l.9-.7 1.3 1v3.2zm0 2.7c-.3-.2-.5-.4-1.1-.4-.6 0-.9.2-1.1.4V8.1c.1.2.5.4 1.1.4.5 0 .9-.2 1.1-.4v2.1zm0 3.8c0 .8-.5 1.6-1.4 1.6-.2 0-.7 0-.9-.1v-4.9c.2-.2.6-.4 1.1-.4.5 0 .9.2 1.1.4V14zm12.6-5.8l-3-2.3L90 8.6v5.5l-1 .7.3.4.9-.6 2.9 2.1 4.6-2.8V8.2zm-5 5.3v-6l2.4 1.6v6l-2.4-1.6zM106.5 6c-.3.3-.5.5-.9.5s-.9-.2-1-.5h-.2l-1.5 1.7-1.6-1.7-2.8 2 .3.4.8-.5.8.8V14l-1.4.9.3.4.8-.5 2.3 1.9 3.1-2.1-.3-.4-.9.6-1.1-.9V8c.7.7 1.3.9 1.9.9 1.2 0 1.9-1.5 2-2.9h-.6zm11.3 8.3l-.9.6-4.1-6.1.2-.4c.4.3.9.7 1.9.7 1.1 0 2.2-1.2 2.4-3h-.4c-.4.5-.7.8-1.3.8-.4 0-1-.3-1.4-.8h-.2l-3.1 4.8 4.1 6 3.2-2.1-.4-.5zm-5.8.3l-.7.5-.8-.8V.7h-.4l-3.4 2.4v.3c.5.2 1 .3 1 1.1V14l-1.4.9.3.4.8-.5 2.2 1.9 2.6-1.8-.2-.3zm21.8-12c0-1.9-1.9-2.5-3.4-2.4v.4c.9.1 1.6.3 1.6.8 0 .4-.2.8-1 .8-.7 0-2-.4-3-.7-1.1-.4-2.4-.8-3.3-.8-1.8 0-3.2 1.1-3.2 2.7 0 1.4.9 2 1.4 2.2l.2-.3c-.3-.2-.5-.4-.5-.9 0-.4.4-1 1.2-1 .5 0 .9.1 1.5.2s1.2.3 2 .5c1.2.4 2.3.7 3.3.8v2.6l-1.3 1.1v.3l1.3 1.1v3.7c-.7.4-1.4.5-2.2.5-1.3 0-2.6-.3-3.6-1.2l3.7-1.8V5.1l-4.6 2c.5-1 1.2-1.9 2.2-2.5l-.2-.3c-2.6.7-5 3-5 6.1 0 3.6 3 6.2 6.6 6.2 3.9 0 6.2-2.8 6.2-5.9h-.4c-.6 1.1-1.3 2.2-2.3 2.7V9.9l1.4-1.1v-.1L131 7.6V4.9c1.4.2 2.8-.6 2.8-2.3m-8.1 9.6l-1.2.6c-.7-.8-1-2-1-3.4 0-.6 0-1.2.2-1.6l2.2-.9-.2 5.3zm11.4-10.7h-.1l-1.9 1.7v.2l1.7 1.8h.2l1.9-1.7v-.2l-1.8-1.8zm3 12.8l-.9.6-.7-.7V7.9L136.9 6 134 7.9l.3.4.8-.5.7.9v5.5l-1.3.9.3.4.7-.5 2 1.8 3-2.1-.4-.4zm15.8 0l-.8.6-.8-.8V8.6l.9-.7-.2-.4-.9.6-2.3-2-2.6 1.9-2.2-1.9-2.7 1.8-1.6-1.8-2.9 2 .3.4.8-.5.8.9v5.5l-.8.7 2.4 1.9 2-1.8-.9-.8V8.5l.9-.5 1.4 1.3v5.2l-.8.7L148 17l2.2-1.8-.9-.8V8.6l.8-.5 1.5 1.3v5.1l-.7.7 2.1 1.9 3-2.1-.1-.7zm8.1-1.4l-2.3 1.8-2.5-1.7v-.9l4.5-2.8v-.1L161.6 6l-5 2.6v5.8l3.3 2.4 4.3-3.5-.2-.4zm-4.7-1.3V7.7l.4-.1 1.8 2.6-2.2 1.4zm13.2-.3l-1.9-1.4c1.1-1 1.7-2.5 1.7-3.3V6h-.3c-.2.5-.6.9-1.2.9-.7 0-1.1-.4-1.5-.9L165 8.5v3l1.6 1.3c-1.5 1.3-2 2.1-2 3 0 .9.6 1.6 1.3 1.9l.2-.3c-.2-.2-.4-.3-.4-.6s.3-.8.9-.8c.9 0 1.4.6 1.7.9l4.1-2.5v-3.1zm-1.4-2.7c-.6 1-2 2-2.6 2.4l-.9-.9V7.2c.4 1 1.2 1.7 2.4 1.7.3 0 .8-.1 1.1-.3m-1.3 6.9c-.5-1.1-1.4-1.8-2.6-1.8-.4 0-.9.2-1.4.5.4-.7 1.7-1.8 2.8-2.5l1.1.9.1 2.9zM183.1.8c-.3.3-.6.6-1 .6-.5 0-.9-.1-1.2-.2-.6-.2-1.1-.4-1.6-.4-.8 0-2.2.5-2.9 2.6l.4.2c.2-.4.5-.9 1.2-.9.4 0 .9.1 1.2.2.3.1.9.2 1.2.2 1.2 0 2.4-1.3 3.1-2.1l-.4-.2zm14.1 13.3l-.8.6-1-.9V4.1l1.1-.9-.2-.2-.9.6-2.8-2.5-2.3 1.4V1.3h-.5v1.4l-1.2.8-2.9-2.4-4.1 2.6c-.8.5-2.6 1.8-2.6 3.3v.2c-1.6.1-2.5.9-2.5 2.3 0 .6.2.9.3 1.2h.4v-.2c0-.6.3-1 1.2-1h.7V11c0 1-.1 1.8-1 2l.1.4c2.5-.4 3.6-1.2 3.6-3.1V5.4c0-.9.6-1.5 1.2-2.1v7.8c0 2-.9 2.5-1.8 2.6-.9.2-1.7.1-2.6.5-.8.3-1.5.9-1.5 2.2 0 1.7 1.2 2.4 2.5 2.4v-.5c-.6 0-1.1-.2-1.1-.8 0-.5.3-.8 1-.9.6-.1 1.2-.1 1.9-.3.9-.2 2.2-1.1 2.2-2.7v-3c.2-.2.6-.4 1.1-.4.5 0 .9.2 1.1.4V14l-1.3.9.2.3.7-.5 2.4 2 3.5-2.6-.3-.3-.6.4v-3.6c.2-.2.6-.4 1.1-.4.5 0 .9.2 1.1.4v3.3l-1.2.9.2.3.7-.5 2.3 2 3-2.5h-.4zm-4.7-6.6c-.3.3-.7.4-1.1.4-.6 0-.9-.2-1.1-.4V3.2l2.2 1.8v2.5zm0 2.7c-.3-.2-.6-.4-1.1-.4-.6 0-.9.2-1.1.4V8.1c.2.2.6.4 1.1.4.5 0 .9-.2 1.1-.4v2.1zm-2.8 4.3l-1.2-.9V3.9l1.2-.8v11.4zm-4-7c-.3.3-.7.4-1.1.4-.6 0-.9-.2-1.1-.4V3.3l2.3 1.6v2.6zm0 2.7c-.3-.2-.6-.4-1.1-.4-.6 0-.9.2-1.1.4V8.1c.2.2.6.4 1.1.4.5 0 .9-.2 1.1-.4v2.1zm21.5 4.2l-.9.6-1-1V8.6l1-.7-.2-.4-.9.6-3.1-2-2.3 1.2c-.8.4-1.3.9-1.3 1.8s.9 1.4 1.8 1.9c-1.2.7-2.5 1.6-2.5 3 0 1.7 1.6 2.6 2.8 2.8l2.2-1.6 1.6 1.6 2.9-2-.1-.4zm-4.4-3.2c-1.5-.4-3.7-1-3.7-2.3 0-.8.6-1.1 1-1.3l2.6 1.6v2zm0 3.7c-.1 0-.4.1-.6.1-1 0-1.9-1.2-1.9-2.6 0-.5.1-.9.4-1.3.7.3 1.7.6 2.1.7v3.1zm13.5-7.5l-.8.6-2.8-2.1-4.7 2.7v6l3 2.1 2-1.4c0 1 .7 1.7.7 2.3 0 .4-.4.8-.8.9-.7-.6-1.5-1.1-2.7-1.1-1.6 0-2.6 1-3.2 2.3l.3.2c.5-.3.8-.6 1.3-.6.8 0 1.6.4 2.4 1.2 0 0 1.7-1.2 2.8-2 .6-.4 1.2-.8 1.7-1 .4-.3.8-.7.8-1.1 0-.4-.1-.8-.3-1-.1-.4-.3-.8-.3-1.6V8.4l1-.7-.4-.3zm-5.8 5.9V7.4l2.4 1.6v5.8l-2.4-1.5zm15.8 1.1l-.9.6-1-1V8.6l1-.7-.2-.4-.9.6-3.1-2-2.2 1.2c-.8.4-1.3.9-1.3 1.8s.9 1.4 1.8 1.9c-1.2.7-2.5 1.6-2.5 3 0 1.7 1.6 2.6 2.8 2.8l2.2-1.6 1.6 1.6 2.9-2-.2-.4zm-4.5-3.2c-1.5-.4-3.7-1-3.7-2.3 0-.8.6-1.1 1-1.3l2.6 1.6v2zm0 3.7c-.1 0-.4.1-.6.1-1 0-1.9-1.2-1.9-2.6 0-.5.1-.9.4-1.3.7.3 1.7.6 2.1.7v3.1zm12.8-1.2l-.6.7c-.9-.5-2.3-.8-2.9-.8-.9 0-1.9.1-2.5.3h-.1c.4-.6 1-1.2 1.4-1.7h2.2l1.7-2-.3-.3-.6.6H231c1.5-1.4 2.7-2.6 3.5-4.1l-.2-.3c-.9.5-1.6.8-2.8.8-1.2 0-2.6-.5-3.2-.8h-.2l-1.6 3 .4.2.5-.8c.6.3 1.6.6 2.6.6.6 0 1.4-.1 2-.3l-1.5 1.6h-2l-1.7 2 .3.3.6-.6h1.7c-1.6 1.7-2.6 2.8-3 4.4l.2.2c.8-.7 1.8-.9 3-.9 1 0 2.4.5 3 .8h.1l2.2-2.7-.3-.2zm3.2-12.2h-.2l-1.9 1.7v.2l1.7 1.8h.2l1.9-1.7v-.2l-1.7-1.8zm2.8 12.8l-.9.6-.7-.7V7.9L237.4 6l-2.8 1.9.3.4.8-.5.7.9v5.5l-1.3.9.3.4.7-.5 2 1.8 3-2.1-.5-.4zm11 0l-.8.6-.9-.8V8.6l.9-.7-.3-.4-.9.6-2.3-2-2.3 1.8-1.6-1.8-2.9 2 .3.4.8-.5.8.9v5.5l-.8.7L244 17l2-1.8-.9-.8V8.5l.9-.5 1.5 1.3v5.1l-.7.7 2.1 1.9 3.1-2.1-.4-.6zm8.2-1.4l-2.3 1.8L255 13v-.9l4.5-2.8v-.1L257.4 6l-5 2.6v5.8l3.3 2.4 4.3-3.5-.2-.4zm-4.7-1.3V7.7l.4-.1 1.8 2.6-2.2 1.4z"
     id="path2"
     style="fill:#d40000;opacity:0.477" />
</svg>
